REM DIRINDEX 1\2,1\3,1\4,1\5
REM DIRNAME cjc004,folder01,folder02,folder03,folder04
TITLE ""
FILE "1Q_t_1470-1479.mp3" MP3
  TRACK 01 AUDIO
    TITLE "3:cjc004_5316"
    INDEX 01 00:00:00
  TRACK 02 AUDIO
    TITLE "0:"
    INDEX 01 00:01:11
  TRACK 03 AUDIO
    TITLE "4:cjc004_5317"
    INDEX 01 00:01:38
  TRACK 04 AUDIO
    TITLE "0:"
    INDEX 01 00:02:32
  TRACK 05 AUDIO
    TITLE "5:cjc004_5318"
    INDEX 01 00:02:55
  TRACK 06 AUDIO
    TITLE "0:"
    INDEX 01 00:07:23
  TRACK 07 AUDIO
    TITLE "3:cjc004_5319"
    INDEX 01 00:08:03
  TRACK 08 AUDIO
    TITLE "0:"
    INDEX 01 00:09:32
  TRACK 09 AUDIO
    TITLE "4:cjc004_5320"
    INDEX 01 00:09:65
  TRACK 10 AUDIO
    TITLE "0:"
    INDEX 01 00:11:35
  TRACK 11 AUDIO
    TITLE "5:cjc004_5321"
    INDEX 01 00:11:64
  TRACK 12 AUDIO
    TITLE "0:"
    INDEX 01 00:16:28
  TRACK 13 AUDIO
    TITLE "3:cjc004_5322"
    INDEX 01 00:17:10
  TRACK 14 AUDIO
    TITLE "0:"
    INDEX 01 00:18:42
  TRACK 15 AUDIO
    TITLE "4:cjc004_5323"
    INDEX 01 00:18:70
  TRACK 16 AUDIO
    TITLE "0:"
    INDEX 01 00:20:02
  TRACK 17 AUDIO
    TITLE "5:cjc004_5324"
    INDEX 01 00:20:22
  TRACK 18 AUDIO
    TITLE "0:"
    INDEX 01 00:25:17
  TRACK 19 AUDIO
    TITLE "3:cjc004_5325"
    INDEX 01 00:25:74
  TRACK 20 AUDIO
    TITLE "0:"
    INDEX 01 00:27:20
  TRACK 21 AUDIO
    TITLE "4:cjc004_5326"
    INDEX 01 00:27:51
  TRACK 22 AUDIO
    TITLE "0:"
    INDEX 01 00:28:74
  TRACK 23 AUDIO
    TITLE "5:cjc004_5327"
    INDEX 01 00:29:25
  TRACK 24 AUDIO
    TITLE "0:"
    INDEX 01 00:34:53
  TRACK 25 AUDIO
    TITLE "3:cjc004_5328"
    INDEX 01 00:35:41
  TRACK 26 AUDIO
    TITLE "0:"
    INDEX 01 00:36:62
  TRACK 27 AUDIO
    TITLE "4:cjc004_5329"
    INDEX 01 00:37:16
  TRACK 28 AUDIO
    TITLE "0:"
    INDEX 01 00:38:47
  TRACK 29 AUDIO
    TITLE "5:cjc004_5330"
    INDEX 01 00:39:03
  TRACK 30 AUDIO
    TITLE "0:"
    INDEX 01 00:44:16
  TRACK 31 AUDIO
    TITLE "3:cjc004_5331"
    INDEX 01 00:44:67
  TRACK 32 AUDIO
    TITLE "0:"
    INDEX 01 00:45:73
  TRACK 33 AUDIO
    TITLE "4:cjc004_5332"
    INDEX 01 00:46:31
  TRACK 34 AUDIO
    TITLE "0:"
    INDEX 01 00:47:36
  TRACK 35 AUDIO
    TITLE "5:cjc004_5333"
    INDEX 01 00:47:66
  TRACK 36 AUDIO
    TITLE "0:"
    INDEX 01 00:52:73
  TRACK 37 AUDIO
    TITLE "3:cjc004_5334"
    INDEX 01 00:53:49
  TRACK 38 AUDIO
    TITLE "0:"
    INDEX 01 00:55:03
  TRACK 39 AUDIO
    TITLE "4:cjc004_5335"
    INDEX 01 00:55:30
  TRACK 40 AUDIO
    TITLE "0:"
    INDEX 01 00:56:49
  TRACK 41 AUDIO
    TITLE "5:cjc004_5336"
    INDEX 01 00:57:03
  TRACK 42 AUDIO
    TITLE "0:"
    INDEX 01 01:02:06
  TRACK 43 AUDIO
    TITLE "3:cjc004_5337"
    INDEX 01 01:02:61
  TRACK 44 AUDIO
    TITLE "0:"
    INDEX 01 01:03:71
  TRACK 45 AUDIO
    TITLE "4:cjc004_5338"
    INDEX 01 01:04:27
  TRACK 46 AUDIO
    TITLE "0:"
    INDEX 01 01:05:38
  TRACK 47 AUDIO
    TITLE "5:cjc004_5339"
    INDEX 01 01:05:68
  TRACK 48 AUDIO
    TITLE "0:"
    INDEX 01 01:10:08
  TRACK 49 AUDIO
    TITLE "3:cjc004_5340"
    INDEX 01 01:10:67
  TRACK 50 AUDIO
    TITLE "0:"
    INDEX 01 01:12:05
  TRACK 51 AUDIO
    TITLE "4:cjc004_5341"
    INDEX 01 01:12:42
  TRACK 52 AUDIO
    TITLE "0:"
    INDEX 01 01:13:59
  TRACK 53 AUDIO
    TITLE "5:cjc004_5342"
    INDEX 01 01:14:14
  TRACK 54 AUDIO
    TITLE "0:"
    INDEX 01 01:18:19
  TRACK 55 AUDIO
    TITLE "3:cjc004_5343"
    INDEX 01 01:19:07
  TRACK 56 AUDIO
    TITLE "0:"
    INDEX 01 01:20:32
  TRACK 57 AUDIO
    TITLE "4:cjc004_5344"
    INDEX 01 01:20:63
  TRACK 58 AUDIO
    TITLE "0:"
    INDEX 01 01:22:52
  TRACK 59 AUDIO
    TITLE "5:cjc004_5345"
    INDEX 01 01:23:07
  TRACK 60 AUDIO
    TITLE "0:"
    INDEX 01 01:30:52
